# xmcd
#
# Track frame offsets:
#  150
#  23554
#  41300
#  66540
#  83914
#  99445
#  115222
#  136601
#  150592
#  163782
#  182545
#  203188
#  219670
#  236066
#  250969
#
# Disc length: 3657 seconds
#
# Revision: 0
# Processed by: cddbd v1.5.1PL2 Copyright (c) Steve Scherf et al.
# Submitted via: Collectorz.com_Music_Collector 6.11
#
DISCID=c50e470f
DTITLE=Two Tons of Steel - Two Ton Tuesday Live! 
DYEAR=2006
DGENRE=Alt.Country
TTITLE0=Diddly Daddy
TTITLE1=Maybe I
TTITLE2=Sedated
TTITLE3=Love Is Here To Stay
TTITLE4=Unglued
TTITLE5=Vegas
TTITLE6=You Know
TTITLE7=Heartache
TTITLE8=Stinkin' Drunks
TTITLE9=King Of A One Horse Town
TTITLE10=Havana Moon
TTITLE11=Two Tons Of Steel
TTITLE12=You Didn't Know Me
TTITLE13=Red Headed Woman
TTITLE14=Ice Cream Man
EXTD=
EXTT0=
EXTT1=
EXTT2=
EXTT3=
EXTT4=
EXTT5=
EXTT6=
EXTT7=
EXTT8=
EXTT9=
EXTT10=
EXTT11=
EXTT12=
EXTT13=
EXTT14=
PLAYORDER=
